<svg width="287" height="300" viewBox="0 0 287 300" fill="none" xmlns="http://www.w3.org/2000/svg">
<path d="M182.737 42.9559C193.862 34.1597 204.728 25.6157 215.538 16.9999C235.857 0.804922 259.046 -2.53688 283.924 1.64037C284.861 1.7976 285.913 2.00489 286.541 3.47495C283.126 4.7042 279.71 5.87165 276.34 7.15754C260.819 13.0792 248.238 23.5666 235.393 33.6279C189.642 69.4645 143.902 105.316 98.1706 141.178C67.5101 165.222 36.8768 189.3 6.20481 213.329C4.69662 214.51 3.3756 216.187 1.06921 216.167C-0.495352 214.457 0.119119 212.366 0.118005 210.472C0.0836572 152.332 0.0906463 94.1918 0.0969023 36.0515C0.0976343 29.304 0.112955 29.2975 7.08824 29.2886C11.5861 29.2828 16.085 29.359 20.5816 29.2843C23.3274 29.2387 24.5604 30.5115 24.5518 33.1796C24.547 34.6785 24.5975 36.1776 24.5978 37.6766C24.6046 78.658 24.6081 119.639 24.6121 160.621C24.6123 162.435 24.6121 164.249 24.6121 167.775C77.9266 125.689 130.19 84.4321 182.737 42.9559Z" fill="black"/>
<path d="M167.653 223.297C190.525 240.872 211.952 259.727 235.318 276.08C249.436 285.961 264.953 291.84 282.476 291.44C283.545 291.416 284.836 291.042 285.891 292.816C280.735 296.433 274.684 297.522 268.812 298.464C245.778 302.163 223.819 298.847 204.194 285.819C193.816 278.93 184.374 270.617 174.594 262.842C146.811 240.756 119.1 218.581 91.2996 196.518C81.6001 188.82 71.1332 182.444 57.7302 179.453C63.0204 176.159 67.8849 176.046 72.4671 175.674C93.0786 174.001 111.753 179.388 128.132 192.113C141.29 202.335 154.301 212.745 167.653 223.297Z" fill="black"/>
</svg>
