<svg version="1.1" id="Layer_1" xmlns="http://www.w3.org/2000/svg" xmlns:xlink="http://www.w3.org/1999/xlink" x="0px" y="0px"
	 width="100%" viewBox="0 0 1024 672" enable-background="new 0 0 1024 672" xml:space="preserve">
<path fill="#000000" opacity="1.000000" stroke="none" 
	d="
M513.662476,376.906464 
	C513.662903,366.920959 513.645447,357.421997 513.670837,347.923187 
	C513.735168,323.857178 531.083252,306.126648 555.157959,305.956146 
	C582.653381,305.761414 610.151123,305.892944 637.647888,305.926544 
	C643.162231,305.933289 645.038086,308.855927 642.003845,313.507599 
	C638.313538,319.165100 633.775146,323.506683 625.935669,323.402985 
	C602.442627,323.092224 578.942627,323.263000 555.445435,323.314667 
	C539.300049,323.350189 528.067566,337.265656 531.227295,353.013794 
	C531.873901,356.236206 534.141418,355.725952 536.193542,355.735382 
	C548.358521,355.791199 560.523804,355.772736 572.689026,355.778015 
	C582.187866,355.782135 591.687805,355.710358 601.184875,355.840240 
	C603.517029,355.872101 606.926819,354.627777 607.840942,357.606720 
	C608.878540,360.988007 609.332397,364.880493 606.660461,368.074585 
	C603.887085,371.389954 600.695007,373.422363 595.965332,373.371490 
	C576.303223,373.160126 556.636169,373.407349 536.974304,373.184662 
	C532.326843,373.132050 530.818848,374.535370 531.167908,379.183929 
	C532.044861,390.864136 541.042053,399.700745 553.405457,399.856537 
	C572.400269,400.095825 591.400024,399.944244 610.397644,399.952972 
	C622.376038,399.958496 634.354492,399.953979 646.071045,399.953979 
	C646.953735,398.602570 646.224487,398.032715 645.720154,397.420959 
	C619.442993,365.542877 636.158386,317.965546 676.590210,310.055511 
	C696.261841,306.206940 712.876465,313.649200 728.007812,325.437500 
	C736.825317,332.306885 745.030823,339.894714 752.982422,347.726013 
	C755.892395,350.591858 757.718750,350.695984 760.684082,347.789795 
	C771.516479,337.173340 782.577209,326.768707 795.631165,318.832367 
	C812.559570,308.540497 830.308411,305.570404 849.037354,313.524750 
	C870.227539,322.524445 883.630493,347.113525 879.935669,369.930420 
	C875.752930,395.760162 857.153198,413.919098 832.905090,416.424225 
	C815.143982,418.259216 800.292358,411.668518 786.581665,401.450806 
	C777.483765,394.670654 769.191467,386.932617 761.040588,379.050995 
	C759.750916,377.803986 758.385803,376.635101 756.874390,375.265961 
	C748.929077,382.423828 741.384216,389.427856 733.616943,396.175842 
	C717.019836,410.594910 698.245239,418.057068 675.658081,417.576416 
	C635.181091,416.715088 594.672546,417.397736 554.177551,417.294739 
	C530.929932,417.235596 514.122925,400.546387 513.662476,376.906464 
M738.407227,368.909851 
	C740.073669,366.918488 742.660095,365.678925 743.588074,362.454163 
	C731.548218,351.174530 720.220520,338.915344 705.353333,330.881012 
	C701.974365,329.054993 698.316223,327.929840 694.555603,327.069153 
	C675.599487,322.730774 656.061523,334.457916 651.620789,352.906677 
	C646.595947,373.782471 657.823975,393.836884 677.371399,398.673889 
	C691.677429,402.213898 703.914185,397.162201 715.228210,388.983612 
	C723.341064,383.118958 730.673645,376.313965 738.407227,368.909851 
M788.991638,381.496185 
	C797.253845,388.253448 805.486511,395.011597 816.027588,398.113922 
	C831.377686,402.631561 847.353943,397.292908 856.253601,384.511627 
	C865.480835,371.259857 865.117798,352.022369 855.406006,339.595581 
	C845.868286,327.391571 829.546326,322.678986 814.456116,328.621429 
	C796.320312,335.763214 783.460693,349.926910 769.273804,363.367645 
	C776.003906,369.565735 782.228882,375.298584 788.991638,381.496185 
z"/>
<path fill="#000000" opacity="1.000000" stroke="none" 
	d="
M354.369904,235.343155 
	C365.494812,226.546982 376.361664,218.002899 387.171295,209.387100 
	C407.489868,193.192169 430.679504,189.850372 455.557526,194.027618 
	C456.494080,194.184845 457.546539,194.392136 458.173798,195.862198 
	C454.758942,197.091446 451.343475,198.258896 447.973206,199.544785 
	C432.452576,205.466476 419.870789,215.953827 407.025940,226.015106 
	C361.274750,261.851776 315.535187,297.703369 269.803802,333.565369 
	C239.143356,357.608978 208.510010,381.687225 177.838028,405.716125 
	C176.329834,406.897705 175.008820,408.574280 172.702423,408.554077 
	C171.137863,406.844421 171.752335,404.753693 171.751221,402.859589 
	C171.716873,344.719330 171.723862,286.579010 171.730118,228.438705 
	C171.730850,221.691284 171.746170,221.684769 178.721451,221.675842 
	C183.219345,221.670090 187.718262,221.746201 192.214813,221.671539 
	C194.960617,221.625946 196.193573,222.898788 196.185013,225.566803 
	C196.180206,227.065765 196.230759,228.564850 196.231018,230.063889 
	C196.237778,271.045258 196.241302,312.026642 196.245316,353.008026 
	C196.245499,354.822174 196.245331,356.636353 196.245331,360.162384 
	C249.559845,318.075867 301.822937,276.819366 354.369904,235.343155 
z"/>
<path fill="#000000" opacity="1.000000" stroke="none" 
	d="
M422.000000,375.911011 
	C412.337524,375.897552 403.168121,376.088104 394.015900,375.775055 
	C390.117401,375.641693 389.175781,376.999664 389.239136,380.619507 
	C389.422729,391.111511 389.174255,401.611176 389.362549,412.102997 
	C389.431641,415.952911 388.218231,417.434753 384.232117,417.341278 
	C369.423279,416.994019 371.898682,419.066498 371.731567,404.951111 
	C371.585663,392.625000 371.650940,380.295624 371.707642,367.968140 
	C371.739655,361.018585 374.112854,358.692078 381.040619,358.686951 
	C408.528290,358.666687 436.015991,358.672058 463.503662,358.681061 
	C469.640717,358.683044 475.067841,356.957642 478.908691,351.921722 
	C483.230774,346.254791 483.890228,340.089111 480.729218,333.615967 
	C477.390228,326.778473 471.712616,323.425934 464.298218,323.388428 
	C439.143433,323.261108 413.987671,323.322968 388.832306,323.312531 
	C385.667084,323.311218 382.499146,323.392975 379.337250,323.289520 
	C374.173370,323.120605 371.807709,320.475891 371.678192,314.917572 
	C371.532410,308.661011 373.367279,306.191589 379.116730,306.084381 
	C390.441162,305.873230 401.771820,305.986084 413.099884,305.978333 
	C429.925659,305.966797 446.752533,305.845764 463.576965,305.994568 
	C482.274841,306.159943 496.326721,318.099731 499.632812,336.316376 
	C502.434998,351.756409 493.237793,367.597626 478.103851,373.369110 
	C476.094910,374.135193 474.055603,374.821594 471.008209,375.909973 
	C483.731689,389.458008 496.043640,402.567841 508.685272,416.028717 
	C504.789001,418.120880 501.094727,416.699707 497.679047,417.311768 
	C488.617584,418.935394 482.429016,415.014343 476.700592,408.254730 
	C468.310455,398.354156 459.028748,389.212982 450.248627,379.636658 
	C447.807831,376.974548 445.128448,375.740295 441.489166,375.855865 
	C435.165222,376.056732 428.830322,375.911407 422.000000,375.911011 
z"/>
<path fill="#000000" opacity="1.000000" stroke="none" 
	d="
M339.286255,415.684631 
	C362.158264,433.259247 383.585358,452.114471 406.951080,468.467560 
	C421.069275,478.348450 436.586334,484.226929 454.109467,483.827362 
	C455.178131,483.802979 456.469208,483.429077 457.523926,485.202850 
	C452.368286,488.820374 446.317139,489.908783 440.444977,490.851624 
	C417.411377,494.549835 395.451843,491.233795 375.827545,478.206573 
	C365.449158,471.317139 356.007629,463.004395 346.226715,455.229095 
	C318.444275,433.143494 290.733337,410.967865 262.932800,388.905090 
	C253.233322,381.207489 242.766449,374.831512 229.363403,371.840729 
	C234.653580,368.545898 239.518097,368.432800 244.100311,368.061035 
	C264.711761,366.388733 283.385864,371.774872 299.765411,384.500214 
	C312.922943,394.722382 325.934418,405.132599 339.286255,415.684631 
z"/>
</svg>